<?xml version="1.0" encoding="UTF-8" standalone="no"?>
<!-- Created with Inkscape (http://www.inkscape.org/) -->

<svg
   width="512"
   height="512"
   viewBox="0 0 512 512"
   version="1.1"
   id="svg5"
   xml:space="preserve"
   inkscape:version="1.2.2 (732a01da63, 2022-12-09)"
   sodipodi:docname="ExpressBeansLogo.svg"
   inkscape:export-filename="express-beans-logo.svg"
   inkscape:export-xdpi="96"
   inkscape:export-ydpi="96"
   xmlns:inkscape="http://www.inkscape.org/namespaces/inkscape"
   xmlns:sodipodi="http://sodipodi.sourceforge.net/DTD/sodipodi-0.dtd"
   xmlns="http://www.w3.org/2000/svg"
   xmlns:svg="http://www.w3.org/2000/svg"><sodipodi:namedview
     id="namedview7"
     pagecolor="#535353"
     bordercolor="#000000"
     borderopacity="0.25"
     inkscape:showpageshadow="2"
     inkscape:pageopacity="0"
     inkscape:pagecheckerboard="0"
     inkscape:deskcolor="#d1d1d1"
     inkscape:document-units="px"
     showgrid="false"
     inkscape:zoom="0.81738281"
     inkscape:cx="77.686977"
     inkscape:cy="260.58781"
     inkscape:window-width="1920"
     inkscape:window-height="1017"
     inkscape:window-x="-8"
     inkscape:window-y="-8"
     inkscape:window-maximized="1"
     inkscape:current-layer="layer1" /><defs
     id="defs2" /><g
     inkscape:label="Layer 1"
     inkscape:groupmode="layer"
     id="layer1"
     style="display:inline"><g
       id="g3086"
       transform="matrix(1.8007184,0,0,1.8007184,-206.28954,-166.9588)"><path
         style="display:inline;fill:#acacac;fill-opacity:1;stroke-width:0.449802"
         d="m 315.13456,177.57996 h -13.1647 -13.16471 l 3.55592,-1.81851 c 1.95576,-1.00019 4.83068,-2.72818 6.38872,-3.83997 1.55804,-1.11179 3.87279,-3.07661 5.14388,-4.36625 1.27108,-1.28965 2.86697,-3.15445 3.54641,-4.14402 0.67945,-0.98956 1.7711,-2.86005 2.42591,-4.15664 0.6548,-1.2966 1.51167,-3.72552 1.90414,-5.39762 l 0.71357,-3.04018 -0.21751,-2.81115 c -0.11963,-1.54613 -0.54911,-3.31722 -0.95439,-3.93576 -0.40528,-0.61854 -0.58041,-1.12772 -0.38916,-1.13151 0.19125,-0.004 0.13556,-0.15559 -0.12375,-0.33735 -0.25931,-0.18175 -0.91234,-0.96219 -1.45118,-1.73431 -0.53884,-0.77211 -2.06734,-1.93597 -3.39668,-2.58636 l -2.41696,-1.18251 h -2.25803 c -1.24191,0 -3.47209,0.38785 -4.95594,0.86188 -1.48385,0.47403 -3.69811,1.36872 -4.92058,1.98819 -1.22248,0.61948 -3.30765,2.00273 -4.63371,3.07389 -1.32607,1.07116 -4.65386,3.6379 -7.3951,5.70387 -2.74124,2.06596 -6.60336,4.83143 -8.58249,6.14549 -1.97912,1.31406 -5.72372,3.5883 -8.32132,5.05386 -2.59761,1.46556 -6.44341,3.47314 -8.54623,4.46129 -2.10282,0.98814 -4.53175,2.06716 -5.39762,2.39782 -0.86587,0.33065 -1.77672,0.74685 -2.02411,0.92488 -0.24739,0.17804 -1.76547,0.84087 -3.37351,1.47297 -1.60804,0.6321 -3.53094,1.29007 -4.27311,1.46215 -0.74218,0.17208 -1.55182,0.46007 -1.79921,0.63998 -0.24739,0.17991 -1.83411,0.76773 -3.52606,1.30628 -1.69193,0.53854 -5.13292,1.46218 -7.64662,2.05254 -2.5137,0.59035 -6.29086,1.41632 -8.39369,1.83549 -2.10282,0.41917 -7.22536,0.8891 -11.38344,1.04429 l -7.56012,0.28217 c 31.82915,48.65637 102.71169,27.49159 116.59138,-0.2249 z"
         id="path3088"
         sodipodi:nodetypes="cccsssssscsscssscssssssssssssssssscc" /><path
         style="display:inline;fill:#898989;fill-opacity:1;stroke-width:0.440102"
         d="m 310.16031,177.57996 h -12.60304 -12.60305 l 3.40421,-1.81851 c 1.87232,-1.00019 4.62458,-2.72818 6.11615,-3.83997 1.49157,-1.11179 3.70756,-3.07661 4.92442,-4.36625 1.21685,-1.28965 2.74466,-3.15445 3.39511,-4.14402 0.65046,-0.98956 1.69554,-2.86005 2.32241,-4.15664 0.62686,-1.2966 1.44718,-3.72552 1.8229,-5.39762 l 0.68313,-3.04018 -0.20823,-2.81115 c -0.11453,-1.54613 -0.52568,-3.31722 -0.91367,-3.93576 -0.38799,-0.61854 -0.55565,-1.12772 -0.37256,-1.13151 0.18309,-0.004 0.12978,-0.15559 -0.11847,-0.33735 -0.24825,-0.18175 -0.87342,-0.96219 -1.38927,-1.73431 -0.51585,-0.77211 -1.97914,-1.93597 -3.25176,-2.58636 l -2.31384,-1.18251 h -2.1617 c -1.18892,0 -3.32395,0.38785 -4.7445,0.86188 -1.42054,0.47403 -3.54033,1.36872 -4.71065,1.98819 -1.17032,0.61948 -3.16653,2.00273 -4.43601,3.07389 -1.2695,1.07116 -4.45531,3.6379 -7.0796,5.70387 -2.62429,2.06596 -6.32164,4.83143 -8.21633,6.14549 -1.89468,1.31406 -5.47952,3.5883 -7.9663,5.05386 -2.48678,1.46556 -6.16851,3.47314 -8.18161,4.46129 -2.01311,0.98814 -4.33841,2.06716 -5.16734,2.39782 -0.82893,0.33065 -1.70092,0.74685 -1.93775,0.92488 -0.23684,0.17804 -1.69015,0.84087 -3.22958,1.47297 -1.53944,0.6321 -3.3803,1.29007 -4.09081,1.46215 -0.71051,0.17208 -1.48561,0.46007 -1.72245,0.63998 -0.23683,0.17991 -1.75585,0.76773 -3.37562,1.30628 -1.61975,0.53854 -4.91393,1.46218 -7.32038,2.05254 -2.40646,0.59035 -6.02247,1.41632 -8.03559,1.83549 -2.0131,0.41917 -6.91709,0.8891 -10.89777,1.04429 l -7.23758,0.28217 c 30.47119,48.65637 98.32961,27.49159 111.61713,-0.2249 z"
         id="path3088-4"
         sodipodi:nodetypes="cccsssssscsscssscssssssssssssssssscc" /><rect
         style="display:inline;fill:#699f63;fill-opacity:1"
         id="rect3973"
         width="112.86031"
         height="142.52811"
         x="-233.97849"
         y="411.06808"
         ry="0"
         transform="translate(434.27339,-227.51773)" /><path
         style="display:inline;fill:#9beb92;fill-opacity:1;stroke-width:0.455386"
         d="m 217.81152,290.65367 v -12.07009 c -5.77948,-0.25678 -12.12174,-0.55041 -17.53292,-0.33736 -0.007,-0.18554 -0.0159,-10.96391 -0.0188,-23.95193 -0.003,-12.98802 0.003,-23.81699 0.014,-24.06438 l 0.0192,-0.4498 h 8.572 c 4.71459,0 8.64673,-0.11746 8.7381,-0.26102 0.0913,-0.14356 0.19741,-2.94524 0.23565,-6.22598 l 0.0695,-5.96495 c 7.92929,-1.14019 12.94515,-3.8304 13.44173,-12.73694 h 24.92721 24.9272 c 1.37375,7.55037 6.55494,12.02109 14.0617,13.36926 v 6.02227 6.02226 h 8.94949 8.94952 l 0.013,24.28928 0.013,24.28929 h -8.96254 -8.96251 v 6.03505 6.03504 c -8.37598,1.02011 -11.91664,6.15777 -14.11647,13.34369 l -24.53283,0.1164 -24.53282,0.1164 c -1.95981,-7.59483 -6.2896,-11.90623 -14.2724,-13.57649 z"
         id="path3092"
         sodipodi:nodetypes="cccsccssscccccccccccccccccccc" /><g
         aria-label="express"
         id="text9947"
         style="font-size:26.6368px;fill:#112a46;stroke-width:2.21973"><path
           d="m 219.54019,257.93934 h -10.70414 q 0,1.33964 0.40319,2.34112 0.40319,0.98848 1.10553,1.62578 0.67633,0.6243 1.59977,0.93645 0.93645,0.31215 2.05499,0.31215 1.48271,0 2.97843,-0.58528 1.50872,-0.59828 2.14603,-1.17056 h 0.13006 v 2.66628 q -1.23559,0.52025 -2.52321,0.87142 -1.28762,0.35117 -2.7053,0.35117 -3.61574,0 -5.64471,-1.95094 -2.02898,-1.96394 -2.02898,-5.56667 0,-3.56372 1.93793,-5.65772 1.95094,-2.09401 5.12447,-2.09401 2.93941,0 4.52617,1.71683 1.59977,1.71682 1.59977,4.87734 z m -2.38014,-1.8729 q -0.013,-1.92493 -0.97547,-2.97843 -0.94946,-1.05351 -2.9004,-1.05351 -1.96394,0 -3.1345,1.15756 -1.15756,1.15755 -1.31363,2.87438 z"
           id="path14258" /><path
           d="m 235.82402,264.94971 h -3.08249 l -4.12298,-5.57968 -4.14899,5.57968 h -2.84837 l 5.67073,-7.24448 -5.6187,-7.2835 h 3.08248 l 4.09697,5.48863 4.10997,-5.48863 h 2.86138 l -5.70975,7.15343 z"
           id="path14260" /><path
           d="m 251.79569,257.51013 q 0,1.76885 -0.50724,3.23856 -0.50725,1.4567 -1.43069,2.47119 -0.85841,0.96246 -2.02897,1.49571 -1.15756,0.52025 -2.45819,0.52025 -1.13154,0 -2.05498,-0.24711 -0.91044,-0.24712 -1.8599,-0.76737 v 6.08692 h -2.44517 v -19.88655 h 2.44517 v 1.52173 q 0.97547,-0.8194 2.18505,-1.36566 1.22259,-0.55927 2.60125,-0.55927 2.62727,0 4.08397,1.98996 1.4697,1.97695 1.4697,5.50164 z m -2.52321,0.065 q 0,-2.62726 -0.89743,-3.92788 -0.89743,-1.30063 -2.75733,-1.30063 -1.0535,0 -2.12002,0.45522 -1.06651,0.45522 -2.04198,1.19657 v 8.23296 q 1.0405,0.46823 1.78186,0.63731 0.75436,0.16908 1.70382,0.16908 2.04198,0 3.18653,-1.37866 1.14455,-1.37867 1.14455,-4.08397 z"
           id="path14262" /><path
           d="m 264.67188,253.08801 h -0.13006 q -0.54627,-0.13007 -1.06652,-0.18209 -0.50724,-0.065 -1.20958,-0.065 -1.13154,0 -2.18505,0.50724 -1.0535,0.49424 -2.02897,1.28762 v 10.31396 h -2.44518 v -14.52798 h 2.44518 v 2.14603 q 1.4567,-1.17057 2.56223,-1.6518 1.11854,-0.49423 2.27609,-0.49423 0.63731,0 0.92345,0.039 0.28613,0.026 0.85841,0.11706 z"
           id="path14264" /><path
           d="m 279.13483,257.93934 h -10.70414 q 0,1.33964 0.40319,2.34112 0.40319,0.98848 1.10553,1.62578 0.67633,0.6243 1.59977,0.93645 0.93645,0.31215 2.05499,0.31215 1.48271,0 2.97843,-0.58528 1.50872,-0.59828 2.14603,-1.17056 h 0.13006 v 2.66628 q -1.23559,0.52025 -2.52321,0.87142 -1.28762,0.35117 -2.7053,0.35117 -3.61574,0 -5.64471,-1.95094 -2.02898,-1.96394 -2.02898,-5.56667 0,-3.56372 1.93793,-5.65772 1.95094,-2.09401 5.12447,-2.09401 2.93941,0 4.52617,1.71683 1.59977,1.71682 1.59977,4.87734 z m -2.38014,-1.8729 q -0.013,-1.92493 -0.97547,-2.97843 -0.94946,-1.05351 -2.9004,-1.05351 -1.96394,0 -3.1345,1.15756 -1.15756,1.15755 -1.31363,2.87438 z"
           id="path14266" /><path
           d="m 293.2206,260.76169 q 0,1.98996 -1.65179,3.26457 -1.63879,1.27462 -4.48716,1.27462 -1.61278,0 -2.96543,-0.37719 -1.33964,-0.39018 -2.25008,-0.8454 v -2.74432 h 0.13007 q 1.15755,0.87142 2.57523,1.39167 1.41768,0.50724 2.71831,0.50724 1.61277,0 2.52321,-0.52025 0.91044,-0.52025 0.91044,-1.63879 0,-0.85841 -0.49424,-1.30062 -0.49424,-0.44221 -1.89891,-0.75436 -0.52025,-0.11706 -1.36566,-0.27313 -0.8324,-0.15608 -1.52173,-0.33817 -1.91192,-0.50724 -2.7183,-1.48271 -0.79339,-0.98847 -0.79339,-2.41916 0,-0.89743 0.36418,-1.69081 0.37718,-0.79339 1.13154,-1.41769 0.72835,-0.61129 1.84689,-0.96246 1.13154,-0.36417 2.52321,-0.36417 1.30063,0 2.62727,0.32515 1.33964,0.31215 2.22406,0.76737 v 2.61426 h -0.13006 q -0.93645,-0.68933 -2.27609,-1.15756 -1.33965,-0.48123 -2.62726,-0.48123 -1.33965,0 -2.26309,0.52025 -0.92345,0.50724 -0.92345,1.52173 0,0.89743 0.55927,1.35265 0.54627,0.45522 1.76885,0.74136 0.67633,0.15607 1.50873,0.31215 0.8454,0.15607 1.40467,0.28614 1.70382,0.39018 2.62727,1.33964 0.92344,0.96246 0.92344,2.54922 z"
           id="path14268" /><path
           d="m 307.09827,260.76169 q 0,1.98996 -1.65179,3.26457 -1.63879,1.27462 -4.48716,1.27462 -1.61278,0 -2.96543,-0.37719 -1.33964,-0.39018 -2.25008,-0.8454 v -2.74432 h 0.13007 q 1.15755,0.87142 2.57523,1.39167 1.41768,0.50724 2.71831,0.50724 1.61277,0 2.52321,-0.52025 0.91044,-0.52025 0.91044,-1.63879 0,-0.85841 -0.49424,-1.30062 -0.49424,-0.44221 -1.89891,-0.75436 -0.52025,-0.11706 -1.36566,-0.27313 -0.8324,-0.15608 -1.52173,-0.33817 -1.91192,-0.50724 -2.7183,-1.48271 -0.79339,-0.98847 -0.79339,-2.41916 0,-0.89743 0.36418,-1.69081 0.37718,-0.79339 1.13154,-1.41769 0.72835,-0.61129 1.84689,-0.96246 1.13154,-0.36417 2.52321,-0.36417 1.30063,0 2.62727,0.32515 1.33964,0.31215 2.22406,0.76737 v 2.61426 h -0.13006 q -0.93645,-0.68933 -2.27609,-1.15756 -1.33965,-0.48123 -2.62726,-0.48123 -1.33965,0 -2.26309,0.52025 -0.92345,0.50724 -0.92345,1.52173 0,0.89743 0.55927,1.35265 0.54627,0.45522 1.76885,0.74136 0.67633,0.15607 1.50873,0.31215 0.8454,0.15607 1.40467,0.28614 1.70382,0.39018 2.62727,1.33964 0.92344,0.96246 0.92344,2.54922 z"
           id="path14270" /></g><g
         aria-label="BEANS"
         transform="scale(0.55136502,1.8136805)"
         id="text11453"
         style="font-size:20.9413px;fill:#112a46;stroke-width:1.74509"><path
           d="m 432.78143,157.44318 q 0.87953,-0.16753 1.17271,-1.02613 0.29318,-0.85859 0.29318,-2.17789 0,-1.06801 -0.39789,-2.05225 -0.37694,-1.00518 -0.9633,-1.15177 -0.56541,-0.14659 -1.068,-0.16753 -0.48165,-0.0209 -0.8586,-0.0419 v 6.76404 q 0.39789,0 0.79577,0 0.41883,-0.0209 1.02613,-0.14659 z m 0.75388,8.31369 -10.24029,-0.0209 v -0.33506 h 0.64918 q 0.43976,-0.0628 0.85859,-0.10471 0.41883,-0.0628 0.64918,-0.31412 0.2513,-0.27223 0.31412,-0.94235 l 0.0419,-0.9633 v -9.92618 l -0.0419,-0.9633 q -0.0628,-0.67012 -0.31412,-0.94236 -0.25129,-0.27223 -0.712,-0.33506 -0.43977,-0.0628 -0.81671,-0.0628 -0.35601,-0.0209 -0.64918,-0.0419 v -0.33506 l 9.67488,-0.0209 q 1.96848,0 3.07837,0.14659 1.10989,0.14659 1.84283,0.64918 0.75389,0.50259 1.17271,1.25648 0.41883,0.73295 0.41883,1.75907 0,1.52871 -0.90048,2.19884 -0.87953,0.67012 -1.78001,0.90047 -0.87953,0.20941 -2.17789,0.20941 v 0.16754 q 1.52871,0 2.2826,0.12564 0.77483,0.10471 1.52872,0.41883 0.77482,0.31412 1.36118,1.19365 0.58636,0.8586 0.58636,2.21978 0,1.3193 -0.6073,2.19884 -0.6073,0.87953 -1.54966,1.3193 -0.94236,0.41882 -2.30354,0.48165 -1.36119,0.0628 -2.36637,0.0628 z m 0.0209,-0.60729 q 0.69107,-0.16754 0.98424,-1.31931 0.31412,-1.15177 0.31412,-2.40825 0,-1.13083 -0.48165,-2.19883 -0.4607,-1.08895 -1.13083,-1.17272 -0.67012,-0.0838 -1.04706,-0.0838 -0.356,-0.0209 -0.54447,-0.0209 h -0.69107 v 7.41322 h 0.2513 q 0.75388,0 1.25648,-0.0209 0.50259,-0.0419 1.08894,-0.18847 z"
           style="font-family:Elephant;-inkscape-font-specification:'Elephant, Normal'"
           id="path14273" /><path
           d="m 449.40883,165.31711 q 0.87953,-0.021 1.80095,-0.021 0.92142,-0.0209 1.94754,-0.14658 1.02612,-0.14659 2.5339,-2.07319 1.50777,-1.94754 2.21978,-3.99979 h 0.33506 v 6.65933 h -16.45987 v -0.33506 q 0.27224,0 0.62824,-0.0209 0.35601,-0.0419 0.79577,-0.0838 0.46071,-0.0628 0.69107,-0.31412 0.25129,-0.27223 0.31412,-0.94235 l 0.0419,-0.9633 v -9.92618 l -0.0419,-0.9633 q -0.0628,-0.67012 -0.31412,-0.94236 -0.2513,-0.27223 -0.71201,-0.33506 -0.43977,-0.0628 -0.81671,-0.0628 -0.356,-0.0209 -0.64918,-0.0419 v -0.33506 h 16.10386 v 6.19863 h -0.33506 q -1.06801,-2.34543 -2.59672,-3.93697 -1.52872,-1.61248 -2.57578,-1.71718 -1.02613,-0.10471 -1.73813,-0.12565 -0.712,-0.0209 -0.94236,-0.0209 h -0.18847 l -0.0419,6.86875 0.87953,-0.0419 q 1.2146,-0.12565 1.8219,-1.13083 0.62823,-1.02612 0.62823,-2.40825 h 0.39789 v 7.62264 h -0.39789 q 0,-1.40307 -0.62823,-2.45014 -0.6073,-1.04706 -1.8219,-1.17271 l -0.87953,-0.0419 z"
           style="font-family:Elephant;-inkscape-font-specification:'Elephant, Normal'"
           id="path14275" /><path
           d="m 466.53881,160.52155 -1.84283,-5.15156 -1.78001,5.15156 z m -3.76943,0.43977 -0.64918,2.17789 q -0.20942,0.75389 -0.20942,1.19365 0,0.48165 0.23036,0.67013 0.25129,0.18847 0.62824,0.27223 0.37694,0.0628 0.73294,0.0838 0.356,0.0209 0.69106,0.0419 v 0.33506 h -5.90544 v -0.33506 l 1.23553,-0.0838 q 0.69107,-0.0838 1.04707,-0.33507 0.356,-0.27223 0.52353,-0.67012 0.18847,-0.39788 0.39789,-0.94236 0.23035,-0.54447 0.37694,-0.98424 l 3.99979,-11.97842 h 2.30354 l 4.41862,11.97842 0.64918,1.63342 q 0.29317,0.64919 0.58635,0.94236 0.31412,0.27224 0.8586,0.35601 l 0.85859,0.0838 v 0.33506 h -9.94712 v -0.33506 q 0.2513,0 0.43977,0 0.20941,-0.0209 0.73294,-0.10471 0.52354,-0.0838 0.75389,-0.20941 0.23036,-0.14659 0.23036,-0.58636 0,-0.4607 -0.29318,-1.3193 l -0.75389,-2.21977 z"
           style="font-family:Elephant;-inkscape-font-specification:'Elephant, Normal'"
           id="path14277" /><path
           d="m 493.82531,150.80478 q -0.27224,0.0209 -0.6073,0.0419 -0.31412,0.0209 -0.90048,0.12565 -0.58635,0.0838 -0.90047,0.48165 -0.29318,0.37694 -0.35601,1.04706 l -0.0419,1.00518 v 12.22972 h -2.55484 l -9.94711,-12.73231 h -0.0838 v 9.77959 l 0.0419,1.00518 q 0.0628,0.69106 0.33506,1.02612 0.29318,0.33507 0.8586,0.43977 0.58635,0.0838 0.98424,0.10471 0.41882,0.0209 0.56541,0.0419 v 0.33506 h -6.03109 v -0.33506 q 0.27224,-0.0209 0.6073,-0.0419 0.33506,-0.0209 1.17271,-0.14659 0.85859,-0.14659 0.98424,-1.42401 l 0.0419,-1.00518 v -9.52829 l -0.0419,-0.9633 q -0.27224,-0.43977 -0.64918,-0.81671 -0.37694,-0.37695 -0.83765,-0.52354 -0.43977,-0.14659 -0.8586,-0.14659 h -0.62823 v -0.33506 h 7.99957 l 7.51793,9.633 h 0.0838 v -6.68027 l -0.0419,-1.00519 q -0.0628,-0.67012 -0.356,-1.00518 -0.27224,-0.356 -0.83765,-0.43976 -0.56542,-0.10471 -0.92142,-0.12565 -0.33506,-0.0209 -0.62824,-0.0419 v -0.33506 h 6.0311 z"
           style="font-family:Elephant;-inkscape-font-specification:'Elephant, Normal'"
           id="path14279" /><path
           d="m 507.96068,161.25449 q 0,2.07319 -1.75907,3.41344 -1.73813,1.3193 -3.79038,1.3193 -1.80095,0 -3.56002,-1.13083 -1.75907,-1.15177 -2.0313,-1.15177 -0.69107,0 -0.8586,0.52353 -0.16753,0.52353 -0.31412,1.75907 h -0.356 v -7.49699 h 0.356 q 0.12565,0.43977 0.41883,1.44495 0.31412,1.00518 1.13083,2.40825 0.83765,1.38213 2.17789,2.30354 1.36119,0.92142 3.1412,0.92142 1.02612,0 1.6753,-0.54447 0.64918,-0.54448 0.64918,-1.29836 0,-0.90048 -0.48165,-1.42401 -0.48165,-0.52353 -1.73812,-1.00518 -1.25648,-0.5026 -2.65955,-1.06801 -1.40307,-0.56542 -2.97366,-1.52872 -1.5706,-0.94235 -1.5706,-3.56002 0,-2.05224 1.65436,-3.47625 1.65436,-1.42401 3.81132,-1.42401 1.19365,0 2.32448,0.56541 l 2.1779,1.2146 q 0.6073,0 0.79577,-0.50259 0.18847,-0.52353 0.18847,-1.27742 h 0.39788 v 5.54944 h -0.37694 q -0.10471,-0.356 -0.43977,-1.21459 -0.31412,-0.85859 -1.25648,-1.9266 -0.92141,-1.06801 -1.84283,-1.52872 -0.90048,-0.48165 -2.1779,-0.48165 -0.85859,0 -1.59153,0.5026 -0.73295,0.50259 -0.73295,1.25647 0,0.79577 0.54447,1.34025 0.56542,0.52353 1.27742,0.83765 0.73295,0.31412 2.01037,0.79577 1.27742,0.48165 2.6386,1.13083 1.38213,0.62824 2.26166,1.86377 0.87954,1.2146 0.87954,2.8899 z"
           style="font-family:Elephant;-inkscape-font-specification:'Elephant, Normal'"
           id="path14281" /></g><rect
         style="fill:#112a46;fill-opacity:1;stroke-width:0.502578"
         id="rect11563"
         width="122.22606"
         height="7.0638433"
         x="195.61203"
         y="176.84572"
         ry="3.5319216" /><rect
         style="display:inline;fill:#112a46;fill-opacity:1;stroke-width:0.502578"
         id="rect11563-3"
         width="122.22606"
         height="7.0638433"
         x="195.61203"
         y="325.60507"
         ry="3.5319216" /><g
         style="display:inline;fill:#112a46;fill-opacity:1"
         id="g13533"
         transform="matrix(0.83035302,0,0,0.83035302,235.96625,206.55681)"><g
           id="Layer_23"
           style="fill:#112a46;fill-opacity:1" /><g
           id="Layer_22"
           style="fill:#112a46;fill-opacity:1" /><g
           id="Layer_21"
           style="fill:#112a46;fill-opacity:1" /><g
           id="Layer_20"
           style="fill:#112a46;fill-opacity:1" /><g
           id="Layer_19"
           style="fill:#112a46;fill-opacity:1" /><g
           id="Layer_18"
           style="fill:#112a46;fill-opacity:1" /><g
           id="Layer_17"
           style="fill:#112a46;fill-opacity:1" /><g
           id="Layer_16"
           style="fill:#112a46;fill-opacity:1" /><g
           id="Layer_15"
           style="fill:#112a46;fill-opacity:1" /><g
           id="Layer_14"
           style="fill:#112a46;fill-opacity:1" /><g
           id="Layer_13"
           style="fill:#112a46;fill-opacity:1" /><g
           id="Layer_12"
           style="fill:#112a46;fill-opacity:1" /><g
           id="Layer_11"
           style="fill:#112a46;fill-opacity:1" /><g
           id="Layer_10"
           style="fill:#112a46;fill-opacity:1" /><g
           id="Layer_9"
           style="fill:#112a46;fill-opacity:1" /><g
           id="Layer_8"
           style="fill:#112a46;fill-opacity:1" /><g
           id="Layer_7"
           style="fill:#112a46;fill-opacity:1" /><g
           id="Layer_6"
           style="fill:#112a46;fill-opacity:1" /><g
           id="Layer_5"
           style="fill:#112a46;fill-opacity:1" /><g
           id="Layer_4"
           style="fill:#112a46;fill-opacity:1">

<path
   clip-rule="evenodd"
   d="M 8.962,18.405 C 7.052,21.537 7.538,27.004 8.437,30.271 L 6.024,30.929 C 4.924,26.927 4.51,20.892 6.824,17.101 Z m 33.32,1.929 C 41.936,16.963 40.406,11.692 37.492,9.465 l 1.52,-1.99 c 3.531,2.694 5.332,8.469 5.757,12.598 z M 27.36,18.432 c 2.853,3.102 2.808,5.526 1.697,9.431 -0.732,2.579 -1.475,5.198 -0.083,8.454 2.023,4.729 7.067,6.773 11.737,4.774 5.325,-2.279 8.062,-8.7 8.94,-14.104 C 50.736,20.314 49.288,12.344 45.342,6.777 35.224,-7.498 17.402,7.589 27.36,18.432 Z m -9.937,30.616 c 5.077,0.17 9.038,-3.563 9.209,-8.703 0.118,-3.54 -1.524,-5.711 -3.141,-7.85 -2.45,-3.236 -3.37,-5.479 -1.835,-9.405 C 27.007,9.376 4.928,1.774 0.671,18.745 c -1.66,6.619 -0.121,14.571 3.308,20.397 2.777,4.72 7.655,9.712 13.444,9.906 z"
   fill-rule="evenodd"
   id="path13499"
   style="fill:#112a46;fill-opacity:1" />

</g><g
           id="Layer_3"
           style="fill:#112a46;fill-opacity:1" /><g
           id="Layer_2"
           style="fill:#112a46;fill-opacity:1" /></g><path
         style="fill:#ffffff;fill-opacity:0.0827423"
         d="m 312.90637,183.52874 c 0,0 -43.07376,-2.2399 -59.78691,16.1488 -16.71315,18.3887 -27.09189,60.17784 -14.61052,85.9314 12.48137,25.75356 74.20553,40.51965 74.20553,40.51965"
         id="path12367"
         sodipodi:nodetypes="czzc" /></g></g></svg>
